<?xml version="1.0" encoding="iso-8859-1"?>
<!-- Generator: Adobe Illustrator 22.1.0, SVG Export Plug-In . SVG Version: 6.00 Build 0)  -->
<svg version="1.1" id="Capa_1" xmlns="http://www.w3.org/2000/svg" xmlns:xlink="http://www.w3.org/1999/xlink" x="0px" y="0px"
	 viewBox="-49 141 600 467" style="enable-background:new -49 141 600 467;" xml:space="preserve">
<g>
	<polygon style="fill:#094A63;" points="987.485,351.689 969.551,333.754 951.638,351.667 987.485,387.513 1040.235,334.764 
		1022.322,316.852 	"/>
	<rect x="1065.082" y="309.687" style="fill:#094A63;" width="126.817" height="25.333"/>
	<rect x="1065.082" y="360.395" style="fill:#094A63;" width="126.817" height="25.333"/>
	<polygon style="fill:#094A63;" points="987.485,453.101 969.551,435.166 951.638,453.079 987.485,488.927 1040.235,436.177 
		1022.322,418.264 	"/>
	<rect x="1065.082" y="411.094" style="fill:#094A63;" width="126.817" height="25.333"/>
	<rect x="1065.082" y="461.802" style="fill:#094A63;" width="126.817" height="25.333"/>
	<polygon style="fill:#094A63;" points="987.485,554.514 969.551,536.579 951.638,554.492 987.485,590.34 1040.235,537.59 
		1022.322,519.677 	"/>
	<rect x="1065.082" y="512.51" style="fill:#094A63;" width="126.817" height="25.333"/>
	<rect x="1065.082" y="563.218" style="fill:#094A63;" width="126.817" height="25.333"/>
	<path style="fill:#094A63;" d="M1166.537,232.953v-26.025H977.507v26.025h-76.06v406.303h341.15V232.953H1166.537z
		 M1002.839,232.261h138.365v26.719h-138.365V232.261z M1217.264,613.924H926.78V258.286h50.727v26.025h189.031v-26.025h50.727
		V613.924z"/>
</g>
<g>
	<path style="fill:#094A63;" d="M239.712,212.252h17.917c4.952,0,8.958-4.007,8.958-8.958s-4.007-8.959-8.958-8.959h-17.917
		c-4.952,0-8.959,4.007-8.959,8.959S234.76,212.252,239.712,212.252z"/>
	<path style="fill:#094A63;" d="M275.546,534.758h-53.751c-4.952,0-8.959,4.007-8.959,8.958s4.007,8.958,8.959,8.958h53.751
		c4.952,0,8.959-4.007,8.959-8.958S280.497,534.758,275.546,534.758z"/>
	<circle style="fill:#094A63;" cx="347.214" cy="203.293" r="8.959"/>
	<path style="fill:#094A63;" d="M356.172,158.501H141.168c-19.754,0-35.834,16.071-35.834,35.834v358.34
		c0,19.763,16.08,35.834,35.834,35.834h215.004c19.754,0,35.834-16.071,35.834-35.834v-358.34
		C392.006,174.572,375.926,158.501,356.172,158.501z M141.168,176.418h215.004c9.886,0,17.917,8.04,17.917,17.917v304.589H123.251
		V194.335C123.251,184.457,131.282,176.418,141.168,176.418z M356.172,570.592H141.168c-9.886,0-17.917-8.04-17.917-17.917v-35.834
		h250.838v35.834C374.089,562.552,366.058,570.592,356.172,570.592z"/>
	<path style="fill:#094A63;" d="M168.044,337.671h53.751c4.952,0,8.958-4.007,8.958-8.959v-53.751c0-4.952-4.007-8.958-8.958-8.958
		h-53.751c-4.952,0-8.959,4.007-8.959,8.958v53.751C159.085,333.664,163.092,337.671,168.044,337.671z M177.002,283.92h35.834
		v35.834h-35.834V283.92z"/>
	<path style="fill:#094A63;" d="M266.587,328.712c0,4.952,4.007,8.959,8.958,8.959h53.751c4.952,0,8.958-4.007,8.958-8.959v-53.751
		c0-4.952-4.007-8.958-8.958-8.958h-53.751c-4.952,0-8.958,4.007-8.958,8.958V328.712z M284.504,283.92h35.834v35.834h-35.834
		V283.92z"/>
	<path style="fill:#094A63;" d="M168.044,445.173h53.751c4.952,0,8.958-4.007,8.958-8.958v-53.751c0-4.952-4.007-8.958-8.958-8.958
		h-53.751c-4.952,0-8.959,4.007-8.959,8.958v53.751C159.085,441.166,163.092,445.173,168.044,445.173z M177.002,391.422h35.834
		v35.834h-35.834V391.422z"/>
	<path style="fill:#094A63;" d="M329.297,373.505h-53.751c-4.952,0-8.958,4.007-8.958,8.958v53.751c0,4.952,4.007,8.958,8.958,8.958
		h53.751c4.952,0,8.958-4.007,8.958-8.958v-53.751C338.255,377.511,334.248,373.505,329.297,373.505z M320.338,427.256h-35.834
		v-35.834h35.834V427.256z"/>
</g>
</svg>
