<?xml version="1.0" encoding="iso-8859-1"?>
<!-- Generator: Adobe Illustrator 22.1.0, SVG Export Plug-In . SVG Version: 6.00 Build 0)  -->
<svg version="1.1" id="Capa_1" xmlns="http://www.w3.org/2000/svg" xmlns:xlink="http://www.w3.org/1999/xlink" x="0px" y="0px"
	 viewBox="0 0 600 467" style="enable-background:new 0 0 600 467;" xml:space="preserve">
<g>
	<path style="fill:#094A63;" d="M455.69,51.188h-58.168v-8.31c0-4.589-3.721-8.31-8.31-8.31h-49.87
		c-7.791-10.358-20.118-16.619-33.227-16.619s-25.436,6.261-33.227,16.619h-49.87c-4.589,0-8.31,3.721-8.31,8.31v8.31H156.54
		c-4.589,0-8.31,3.721-8.31,8.31v382.247c0,4.589,3.721,8.31,8.31,8.31h299.15c4.589,0,8.31-3.721,8.31-8.31V59.498
		C463.999,54.909,460.278,51.188,455.69,51.188z M231.327,51.188h46.007c2.966,0,5.707-1.581,7.192-4.148
		c4.452-7.692,12.724-12.471,21.589-12.471s17.137,4.779,21.588,12.471c1.485,2.568,4.226,4.148,7.192,4.148h46.008l0,0v33.239
		H231.327V51.188L231.327,51.188z M164.85,433.435V67.808h49.858v24.929c0,4.589,3.721,8.31,8.31,8.31h166.194
		c4.589,0,8.31-3.721,8.31-8.31V67.808h49.858v332.389h-41.549c-4.589,0-8.31,3.721-8.31,8.31s3.721,8.31,8.31,8.31h41.549v16.619
		H164.85z"/>
	<path style="fill:#094A63;" d="M261.512,127.849c-3.555-2.903-8.789-2.375-11.692,1.18l-34.111,41.769l-19.362-24.983
		c-2.811-3.627-8.031-4.289-11.659-1.477c-3.627,2.811-4.289,8.031-1.477,11.659l25.76,33.239c1.551,2.001,3.93,3.186,6.462,3.218
		c0.036,0,0.071,0,0.106,0c2.493,0,4.857-1.12,6.436-3.054l40.718-49.858C265.595,135.987,265.067,130.752,261.512,127.849z"/>
	<path style="fill:#094A63;" d="M289.495,150.905h132.955c4.589,0,8.31-3.721,8.31-8.31c0-4.589-3.721-8.31-8.31-8.31H289.495
		c-4.589,0-8.31,3.721-8.31,8.31C281.186,147.184,284.907,150.905,289.495,150.905z"/>
	<path style="fill:#094A63;" d="M289.495,184.144h49.858c4.589,0,8.31-3.721,8.31-8.31s-3.721-8.31-8.31-8.31h-49.858
		c-4.589,0-8.31,3.721-8.31,8.31S284.907,184.144,289.495,184.144z"/>
	<path style="fill:#094A63;" d="M261.512,227.566c-3.555-2.903-8.789-2.375-11.692,1.18l-34.111,41.769l-19.362-24.983
		c-2.811-3.627-8.031-4.289-11.659-1.477c-3.627,2.811-4.289,8.031-1.477,11.659l25.76,33.239c1.551,2.001,3.93,3.186,6.462,3.218
		c0.036,0,0.071,0,0.106,0c2.493,0,4.857-1.12,6.436-3.054l40.718-49.858C265.595,235.704,265.067,230.469,261.512,227.566z"/>
	<path style="fill:#094A63;" d="M289.495,250.621h132.955c4.589,0,8.31-3.721,8.31-8.31c0-4.589-3.721-8.31-8.31-8.31H289.495
		c-4.589,0-8.31,3.721-8.31,8.31C281.186,246.9,284.907,250.621,289.495,250.621z"/>
	<path style="fill:#094A63;" d="M289.495,283.86h49.858c4.589,0,8.31-3.721,8.31-8.31s-3.721-8.31-8.31-8.31h-49.858
		c-4.589,0-8.31,3.721-8.31,8.31S284.907,283.86,289.495,283.86z"/>
	<path style="fill:#094A63;" d="M261.512,327.283c-3.555-2.903-8.789-2.375-11.692,1.18l-34.111,41.769l-19.362-24.983
		c-2.811-3.627-8.031-4.289-11.659-1.477c-3.627,2.811-4.289,8.031-1.477,11.659l25.76,33.239c1.551,2.001,3.93,3.186,6.462,3.218
		c0.036,0,0.071,0,0.106,0c2.493,0,4.857-1.12,6.436-3.054l40.718-49.858C265.595,335.42,265.067,330.185,261.512,327.283z"/>
	<path style="fill:#094A63;" d="M289.495,350.338h132.955c4.589,0,8.31-3.721,8.31-8.31c0-4.589-3.721-8.31-8.31-8.31H289.495
		c-4.589,0-8.31,3.721-8.31,8.31C281.186,346.617,284.907,350.338,289.495,350.338z"/>
	<path style="fill:#094A63;" d="M339.354,366.957h-49.858c-4.589,0-8.31,3.721-8.31,8.31c0,4.589,3.721,8.31,8.31,8.31h49.858
		c4.589,0,8.31-3.721,8.31-8.31C347.663,370.678,343.942,366.957,339.354,366.957z"/>
	<path style="fill:#094A63;" d="M380.902,400.196c-2.185,0-4.329,0.888-5.875,2.435c-1.546,1.546-2.435,3.69-2.435,5.875
		s0.888,4.329,2.435,5.874c1.546,1.546,3.69,2.436,5.875,2.436c2.185,0,4.329-0.889,5.874-2.436
		c1.546-1.545,2.436-3.689,2.436-5.874s-0.889-4.329-2.436-5.875C385.232,401.085,383.088,400.196,380.902,400.196z"/>
</g>
</svg>
