<?xml version="1.0" encoding="iso-8859-1"?>
<!-- Generator: Adobe Illustrator 22.1.0, SVG Export Plug-In . SVG Version: 6.00 Build 0)  -->
<svg version="1.1" id="Capa_1" xmlns="http://www.w3.org/2000/svg" xmlns:xlink="http://www.w3.org/1999/xlink" x="0px" y="0px"
	 viewBox="-49 141 600 467" style="enable-background:new -49 141 600 467;" xml:space="preserve">
<g>
	<polygon style="fill:#094A63;" points="987.485,351.689 969.551,333.754 951.638,351.667 987.485,387.513 1040.235,334.764 
		1022.322,316.852 	"/>
	<rect x="1065.082" y="309.687" style="fill:#094A63;" width="126.817" height="25.333"/>
	<rect x="1065.082" y="360.395" style="fill:#094A63;" width="126.817" height="25.333"/>
	<polygon style="fill:#094A63;" points="987.485,453.101 969.551,435.166 951.638,453.079 987.485,488.927 1040.235,436.177 
		1022.322,418.264 	"/>
	<rect x="1065.082" y="411.094" style="fill:#094A63;" width="126.817" height="25.333"/>
	<rect x="1065.082" y="461.802" style="fill:#094A63;" width="126.817" height="25.333"/>
	<polygon style="fill:#094A63;" points="987.485,554.514 969.551,536.579 951.638,554.492 987.485,590.34 1040.235,537.59 
		1022.322,519.677 	"/>
	<rect x="1065.082" y="512.51" style="fill:#094A63;" width="126.817" height="25.333"/>
	<rect x="1065.082" y="563.218" style="fill:#094A63;" width="126.817" height="25.333"/>
	<path style="fill:#094A63;" d="M1166.537,232.953v-26.025H977.507v26.025h-76.06v406.303h341.15V232.953H1166.537z
		 M1002.839,232.261h138.365v26.719h-138.365V232.261z M1217.264,613.924H926.78V258.286h50.727v26.025h189.031v-26.025h50.727
		V613.924z"/>
</g>
<g>
	<path style="fill:#094A63;" d="M-688.288,249.841h17.917c4.952,0,8.958-4.007,8.958-8.958c0-4.952-4.007-8.959-8.958-8.959h-17.917
		c-4.952,0-8.958,4.007-8.958,8.959C-697.247,245.834-693.24,249.841-688.288,249.841z"/>
	<path style="fill:#094A63;" d="M-652.454,572.347h-53.751c-4.952,0-8.958,4.007-8.958,8.958s4.007,8.958,8.958,8.958h53.751
		c4.952,0,8.958-4.007,8.958-8.958S-647.503,572.347-652.454,572.347z"/>
	<circle style="fill:#094A63;" cx="-580.786" cy="240.883" r="8.959"/>
	<path style="fill:#094A63;" d="M-571.828,196.09h-215.004c-19.754,0-35.834,16.071-35.834,35.834v358.34
		c0,19.763,16.08,35.834,35.834,35.834h215.004c19.754,0,35.834-16.071,35.834-35.834v-358.34
		C-535.994,212.161-552.074,196.09-571.828,196.09z M-786.832,214.007h215.004c9.886,0,17.917,8.04,17.917,17.917v304.589h-250.838
		V231.924C-804.749,222.047-796.718,214.007-786.832,214.007z M-571.828,608.181h-215.004c-9.886,0-17.917-8.04-17.917-17.917
		V554.43h250.838v35.834C-553.911,600.141-561.942,608.181-571.828,608.181z"/>
	<path style="fill:#094A63;" d="M-759.956,375.26h53.751c4.952,0,8.958-4.007,8.958-8.959v-53.751c0-4.952-4.007-8.958-8.958-8.958
		h-53.751c-4.952,0-8.958,4.007-8.958,8.958v53.751C-768.915,371.253-764.908,375.26-759.956,375.26z M-750.998,321.509h35.834
		v35.834h-35.834V321.509z"/>
	<path style="fill:#094A63;" d="M-661.413,366.302c0,4.952,4.007,8.959,8.959,8.959h53.751c4.952,0,8.958-4.007,8.958-8.959v-53.751
		c0-4.952-4.007-8.958-8.958-8.958h-53.751c-4.952,0-8.959,4.007-8.959,8.958V366.302z M-643.496,321.509h35.834v35.834h-35.834
		V321.509z"/>
	<path style="fill:#094A63;" d="M-759.956,482.762h53.751c4.952,0,8.958-4.007,8.958-8.958v-53.751c0-4.952-4.007-8.958-8.958-8.958
		h-53.751c-4.952,0-8.958,4.007-8.958,8.958v53.751C-768.915,478.755-764.908,482.762-759.956,482.762z M-750.998,429.011h35.834
		v35.834h-35.834V429.011z"/>
	<path style="fill:#094A63;" d="M-598.703,411.094h-53.751c-4.952,0-8.959,4.007-8.959,8.958v53.751
		c0,4.952,4.007,8.958,8.959,8.958h53.751c4.952,0,8.958-4.007,8.958-8.958v-53.751
		C-589.745,415.101-593.752,411.094-598.703,411.094z M-607.662,464.845h-35.834v-35.834h35.834V464.845z"/>
</g>
<g>
	<path style="fill:#094A63;" d="M-475.836,850.386c1.207,2.359,3.613,3.726,6.097,3.726c1.036,0,2.102-0.238,3.09-0.746
		c0.403-0.203,40.586-20.613,60.403-26.875c3.593-1.14,5.586-4.976,4.445-8.566c-1.133-3.594-4.941-5.594-8.567-4.457
		c-20.874,6.602-60.785,26.875-62.476,27.734C-476.203,842.909-477.543,847.019-475.836,850.386L-475.836,850.386z
		 M-475.836,850.386"/>
	<g>
		<defs>
			<rect id="SVGID_1_" x="-708.68" y="655.82" width="409.92" height="410.88"/>
		</defs>
		<clipPath id="SVGID_2_">
			<use xlink:href="#SVGID_1_"  style="overflow:visible;"/>
		</clipPath>
		<path style="clip-path:url(#SVGID_2_);fill:#094A63;" d="M-469.739,772.195c1.036,0,2.102-0.243,3.09-0.747
			c0.403-0.203,40.586-20.617,60.403-26.875c3.593-1.14,5.586-4.976,4.445-8.57c-1.133-3.59-4.941-5.59-8.567-4.457
			c-20.874,6.602-60.785,26.879-62.476,27.738c-3.359,1.707-4.699,5.817-2.992,9.18
			C-474.629,770.827-472.223,772.195-469.739,772.195L-469.739,772.195z M-469.739,772.195"/>
		<path style="clip-path:url(#SVGID_2_);fill:#094A63;" d="M-305.907,758.538c-3.773,0-6.828,3.059-6.828,6.828v266.239
			c0,11.293-9.187,20.48-20.476,20.48h-163.84v-15.707c9.953-3.48,35.879-11.598,61.437-11.598
			c59.469,0,99.848,13.168,100.25,13.305c2.055,0.68,4.348,0.34,6.145-0.945c1.781-1.281,2.832-3.344,2.832-5.535V731.234
			c0-3.204-2.219-5.973-5.344-6.664c0,0-5.351-1.196-14.5-2.875c-3.695-0.684-7.265,1.777-7.949,5.476
			c-0.68,3.715,1.77,7.27,5.477,7.953c3.488,0.641,6.41,1.207,8.664,1.656v285.754c-15.469-4.058-49.821-11.41-95.575-11.41
			c-29.742,0-58.961,9.77-68,13.082c-8.035-3.551-32.324-13.082-61.707-13.082c-47.023,0-85.757,7.758-102.398,11.696V736.515
			c13.633-3.352,53.894-12.11,102.398-12.11c24.891,0,46.239,7.75,54.614,11.25V1004.3c0,2.457,1.324,4.73,3.461,5.937
			c2.136,1.215,4.773,1.184,6.882-0.089c0.676-0.403,68.313-40.801,128.348-60.809c2.793-0.937,4.668-3.539,4.668-6.48V662.964
			c0-2.238-1.098-4.332-2.941-5.609c-1.829-1.278-4.18-1.571-6.289-0.785c-54.618,20.488-109.887,54.878-110.442,55.222
			c-3.195,2-4.168,6.211-2.168,9.406c1.992,3.196,6.203,4.172,9.406,2.172c0.504-0.324,48.586-30.238,98.782-50.422v265.024
			c-46.602,16.191-95.254,42.633-116.055,54.469V731.234c0-2.59-1.461-4.95-3.773-6.11c-1.176-0.582-29.153-14.371-64.493-14.371
			c-61.687,0-109.109,13.348-111.105,13.918c-2.926,0.832-4.949,3.516-4.949,6.563v300.371c0,2.136,1.011,4.16,2.711,5.449
			c1.203,0.91,2.648,1.379,4.117,1.379c0.629,0,1.258-0.09,1.871-0.266c0.469-0.129,47.676-13.387,107.355-13.387
			c24.957,0,46.286,7.77,54.614,11.258v16.047h-163.84c-11.293,0-20.481-9.187-20.481-20.48V765.366
			c0-3.769-3.058-6.828-6.824-6.828c-3.769,0-6.828,3.059-6.828,6.828v266.239c0,18.824,15.312,34.136,34.133,34.136h341.336
			c18.82,0,34.133-15.312,34.133-34.136V765.366C-299.078,761.597-302.133,758.538-305.907,758.538L-305.907,758.538z
			 M-305.907,758.538"/>
	</g>
	<path style="fill:#094A63;" d="M-475.836,809.425c1.207,2.363,3.613,3.727,6.097,3.727c1.036,0,2.102-0.239,3.09-0.743
		c0.403-0.207,40.586-20.617,60.403-26.879c3.593-1.14,5.586-4.976,4.445-8.566c-1.133-3.59-4.941-5.59-8.567-4.457
		c-20.874,6.602-60.785,26.875-62.476,27.734C-476.203,801.948-477.543,806.062-475.836,809.425L-475.836,809.425z
		 M-475.836,809.425"/>
	<path style="fill:#094A63;" d="M-475.836,891.343c1.207,2.363,3.613,3.73,6.097,3.73c1.036,0,2.102-0.242,3.09-0.746
		c0.403-0.203,40.586-20.617,60.403-26.875c3.593-1.14,5.586-4.976,4.445-8.566c-1.133-3.594-4.941-5.594-8.567-4.461
		c-20.874,6.602-60.785,26.879-62.476,27.738C-476.203,883.87-477.543,887.98-475.836,891.343L-475.836,891.343z M-475.836,891.343"
		/>
	<path style="fill:#094A63;" d="M-543.282,782.827c-42.156-9.89-90.058,2.711-92.074,3.25c-3.636,0.977-5.801,4.719-4.824,8.364
		c0.82,3.05,3.574,5.058,6.586,5.058c0.59,0,1.184-0.074,1.777-0.23c0.457-0.133,46.578-12.262,85.422-3.149
		c3.653,0.852,7.344-1.422,8.207-5.093C-537.328,787.362-539.61,783.691-543.282,782.827L-543.282,782.827z M-543.282,782.827"/>
	<path style="fill:#094A63;" d="M-543.282,823.788c-42.156-9.883-90.058,2.711-92.074,3.25c-3.636,0.977-5.801,4.719-4.824,8.364
		c0.82,3.05,3.574,5.058,6.586,5.058c0.59,0,1.184-0.074,1.777-0.234c0.457-0.129,46.578-12.258,85.422-3.145
		c3.653,0.852,7.344-1.422,8.207-5.094C-537.328,828.323-539.61,824.648-543.282,823.788L-543.282,823.788z M-543.282,823.788"/>
	<path style="fill:#094A63;" d="M-475.836,932.304c1.207,2.363,3.613,3.726,6.097,3.726c1.036,0,2.102-0.238,3.09-0.742
		c0.403-0.203,40.586-20.617,60.403-26.879c3.593-1.136,5.586-4.976,4.445-8.566c-1.133-3.59-4.941-5.59-8.567-4.457
		c-20.874,6.601-60.785,26.879-62.476,27.738C-476.203,924.831-477.543,928.941-475.836,932.304L-475.836,932.304z
		 M-475.836,932.304"/>
	<path style="fill:#094A63;" d="M-543.282,864.749c-42.156-9.887-90.058,2.703-92.074,3.25c-3.636,0.977-5.801,4.715-4.824,8.363
		c0.82,3.051,3.574,5.063,6.586,5.063c0.59,0,1.184-0.082,1.777-0.238c0.457-0.129,46.578-12.262,85.422-3.149
		c3.653,0.856,7.344-1.418,8.207-5.09C-537.328,869.28-539.61,865.609-543.282,864.749L-543.282,864.749z M-543.282,864.749"/>
	<path style="fill:#094A63;" d="M-543.282,946.667c-42.156-9.89-90.058,2.711-92.074,3.25c-3.636,0.977-5.801,4.719-4.824,8.363
		c0.82,3.051,3.574,5.067,6.586,5.067c0.59,0,1.184-0.082,1.777-0.238c0.457-0.133,46.578-12.262,85.422-3.149
		c3.653,0.848,7.344-1.422,8.207-5.094C-537.328,951.202-539.61,947.53-543.282,946.667L-543.282,946.667z M-543.282,946.667"/>
	<path style="fill:#094A63;" d="M-543.282,905.71c-42.156-9.894-90.058,2.703-92.074,3.25c-3.636,0.973-5.801,4.715-4.824,8.36
		c0.82,3.05,3.574,5.066,6.586,5.066c0.59,0,1.184-0.082,1.777-0.238c0.457-0.129,46.578-12.262,85.422-3.149
		c3.653,0.856,7.344-1.418,8.207-5.094C-537.328,910.241-539.61,906.57-543.282,905.71L-543.282,905.71z M-543.282,905.71"/>
</g>
<rect x="-725.864" y="62.019" style="fill:#094A63;" width="146.255" height="29.065"/>
<rect x="-725.864" y="120.197" style="fill:#094A63;" width="146.255" height="29.065"/>
<rect x="-725.864" y="178.376" style="fill:#094A63;" width="146.255" height="29.065"/>
<rect x="-725.864" y="236.554" style="fill:#094A63;" width="146.255" height="29.065"/>
<path style="fill:#094A63;" d="M-375.635,178.376h-87.242v87.242h87.242V178.376z M-404.7,236.552h-29.112v-29.112h29.112V236.552z"
	/>
<path style="fill:#094A63;" d="M-368.372,3.847l3.26-58.949h-108.287l3.26,58.949h-36.767c-11.166,0-21.365,4.216-29.088,11.142
	c-7.725-6.925-17.922-11.142-29.088-11.142h-218.922v378.124h496.021V3.847H-368.372z M-395.829-26.036l-8.09,146.236h-30.674
	l-8.089-146.236L-395.829-26.036z M-506.905,32.912h38.375l6.435,116.353h85.679l6.436-116.353h52.931v261.817h-189.856
	c-5.104,0-10.001,0.889-14.556,2.507V47.467C-521.462,39.441-514.931,32.912-506.905,32.912z M-565.082,32.912
	c8.026,0,14.556,6.529,14.556,14.555v249.769c-4.555-1.618-9.453-2.507-14.556-2.507h-189.857V32.912H-565.082z M-754.939,323.794
	h189.857c8.026,0,14.556,6.53,14.556,14.556v14.556h-204.412V323.794z M-521.462,352.906V338.35c0-8.026,6.53-14.556,14.556-14.556
	h189.857v29.112L-521.462,352.906L-521.462,352.906z"/>
<path style="fill:#094A63;" d="M975.604,892.291L836.821,753.508c-1.37-1.37-3.227-2.14-5.164-2.14H649.049
	c-4.034,0-7.304,3.27-7.304,7.304v423.652c0,4.034,3.27,7.304,7.304,7.304H970.44c4.034,0,7.304-3.27,7.304-7.304v-284.87
	C977.744,895.518,976.974,893.66,975.604,892.291z M952.807,897.455H838.962V783.609L952.807,897.455z M656.353,1175.02V765.977h168
	v138.783c0,4.034,3.27,7.304,7.304,7.304h131.478v262.957H656.353z"/>
<path style="fill:#094A63;" d="M252.503,401.812c-2.932,0-5.67-1.464-7.297-3.903c-9.308-14.001-25.007-22.413-41.819-22.409
	h-99.987c-4.844,0-8.771-3.927-8.771-8.771V208.854c0-4.844,3.927-8.771,8.771-8.771h99.987c18.566-0.013,36.322,7.597,49.117,21.05
	c12.805-13.464,30.58-21.075,49.161-21.05h99.944c4.844,0,8.771,3.927,8.771,8.771v157.875c0,4.844-3.927,8.771-8.771,8.771h-99.944
	c-16.828-0.018-32.546,8.396-41.863,22.409C258.173,400.348,255.434,401.813,252.503,401.812z M112.169,357.958h91.217
	c18.566-0.013,36.322,7.597,49.117,21.05c12.805-13.464,30.58-21.075,49.161-21.05h91.173V217.625h-91.173
	c-16.828-0.018-32.546,8.396-41.863,22.409c-3.015,4.03-8.726,4.854-12.756,1.839c-0.698-0.522-1.317-1.141-1.839-1.839
	c-9.308-14.001-25.007-22.413-41.819-22.409h-91.217L112.169,357.958z"/>
<path style="fill:#094A63;" d="M261.273,436.896h-17.542c-15.993-0.021-29.956-10.834-33.978-26.312H94.628v-17.542h122.792
	c4.844,0,8.771,3.927,8.771,8.771c0,9.688,7.854,17.542,17.542,17.542h17.542c9.688,0,17.542-7.854,17.542-17.542
	c0-4.844,3.927-8.771,8.771-8.771h122.792v17.542H295.252C291.229,426.062,277.266,436.875,261.273,436.896z"/>
<path style="fill:#094A63;" d="M243.732,235.167h17.542v122.792h-17.542V235.167z"/>
<path style="fill:#094A63;" d="M129.711,235.167h52.625v17.542h-52.625V235.167z"/>
<path style="fill:#094A63;" d="M199.878,235.167h17.542v17.542h-17.542V235.167z"/>
<path style="fill:#094A63;" d="M164.794,270.25h52.625v17.542h-52.625V270.25z"/>
<path style="fill:#094A63;" d="M129.711,270.25h17.542v17.542h-17.542V270.25z"/>
<path style="fill:#094A63;" d="M129.711,305.333h17.542v17.542h-17.542V305.333z"/>
<path style="fill:#094A63;" d="M164.794,305.333h17.542v17.542h-17.542V305.333z"/>
<path style="fill:#094A63;" d="M322.669,322.875h52.625v17.542h-52.625V322.875z"/>
<path style="fill:#094A63;" d="M287.586,322.875h17.542v17.542h-17.542V322.875z"/>
<path style="fill:#094A63;" d="M287.586,287.792h52.625v17.542h-52.625V287.792z"/>
<path style="fill:#094A63;" d="M357.753,287.792h17.542v17.542h-17.542V287.792z"/>
<path style="fill:#094A63;" d="M357.753,252.708h17.542v17.542h-17.542V252.708z"/>
<path style="fill:#094A63;" d="M322.669,252.708h17.542v17.542h-17.542V252.708z"/>
<path style="fill:#094A63;" d="M427.919,498.292H77.086c-19.376,0-35.083-15.707-35.083-35.083V200.083
	C42.003,180.707,57.71,165,77.086,165h350.833c19.376,0,35.083,15.707,35.083,35.083v263.125
	C463.003,482.584,447.295,498.292,427.919,498.292z M77.086,182.542c-9.688,0-17.542,7.854-17.542,17.542v263.125
	c0,9.688,7.854,17.542,17.542,17.542h350.833c9.688,0,17.542-7.854,17.542-17.542V200.083c0-9.688-7.854-17.542-17.542-17.542
	H77.086z"/>
<path style="fill:#094A63;" d="M375.294,586H129.711c-14.532,0-26.312-11.781-26.312-26.312s11.781-26.312,26.312-26.312h245.583
	c14.532,0,26.312,11.781,26.312,26.312S389.826,586,375.294,586z M129.711,550.917c-4.844,0-8.771,3.927-8.771,8.771
	s3.927,8.771,8.771,8.771h245.583c4.844,0,8.771-3.927,8.771-8.771s-3.927-8.771-8.771-8.771H129.711z"/>
<path style="fill:#094A63;" d="M305.128,550.917h-105.25c-4.844,0-8.771-3.927-8.771-8.771v-52.625c0-4.844,3.927-8.771,8.771-8.771
	h105.25c4.844,0,8.771,3.927,8.771,8.771v52.625C313.898,546.99,309.972,550.917,305.128,550.917z M208.648,533.375h87.708v-35.083
	h-87.708V533.375z"/>
<path style="fill:#094A63;" d="M305.128,471.979h-105.25c-3.324,0.002-6.364-1.876-7.85-4.85l-6.341-12.691H42.003v-17.542h149.104
	c3.324-0.002,6.364,1.876,7.85,4.85l6.341,12.691h94.409l6.341-12.691c1.486-2.974,4.526-4.852,7.85-4.85h149.104v17.542H319.319
	l-6.297,12.691C311.528,470.117,308.468,471.997,305.128,471.979z"/>
</svg>
