<?xml version="1.0" encoding="iso-8859-1"?>
<!-- Generator: Adobe Illustrator 22.1.0, SVG Export Plug-In . SVG Version: 6.00 Build 0)  -->
<svg version="1.1" id="Capa_1" xmlns="http://www.w3.org/2000/svg" xmlns:xlink="http://www.w3.org/1999/xlink" x="0px" y="0px"
	 viewBox="-49 141 600 467" style="enable-background:new -49 141 600 467;" xml:space="preserve">
<g>
	<polygon style="fill:#094A63;" points="987.485,351.689 969.551,333.754 951.638,351.667 987.485,387.513 1040.235,334.764 
		1022.322,316.852 	"/>
	<rect x="1065.082" y="309.687" style="fill:#094A63;" width="126.817" height="25.333"/>
	<rect x="1065.082" y="360.395" style="fill:#094A63;" width="126.817" height="25.333"/>
	<polygon style="fill:#094A63;" points="987.485,453.101 969.551,435.166 951.638,453.079 987.485,488.927 1040.235,436.177 
		1022.322,418.264 	"/>
	<rect x="1065.082" y="411.094" style="fill:#094A63;" width="126.817" height="25.333"/>
	<rect x="1065.082" y="461.802" style="fill:#094A63;" width="126.817" height="25.333"/>
	<polygon style="fill:#094A63;" points="987.485,554.514 969.551,536.579 951.638,554.492 987.485,590.34 1040.235,537.59 
		1022.322,519.677 	"/>
	<rect x="1065.082" y="512.51" style="fill:#094A63;" width="126.817" height="25.333"/>
	<rect x="1065.082" y="563.218" style="fill:#094A63;" width="126.817" height="25.333"/>
	<path style="fill:#094A63;" d="M1166.537,232.953v-26.025H977.507v26.025h-76.06v406.303h341.15V232.953H1166.537z
		 M1002.839,232.261h138.365v26.719h-138.365V232.261z M1217.264,613.924H926.78V258.286h50.727v26.025h189.031v-26.025h50.727
		V613.924z"/>
</g>
<g>
	<path style="fill:#094A63;" d="M-688.288,249.841h17.917c4.952,0,8.958-4.007,8.958-8.958c0-4.952-4.007-8.959-8.958-8.959h-17.917
		c-4.952,0-8.958,4.007-8.958,8.959C-697.247,245.834-693.24,249.841-688.288,249.841z"/>
	<path style="fill:#094A63;" d="M-652.454,572.347h-53.751c-4.952,0-8.958,4.007-8.958,8.958s4.007,8.958,8.958,8.958h53.751
		c4.952,0,8.958-4.007,8.958-8.958S-647.503,572.347-652.454,572.347z"/>
	<circle style="fill:#094A63;" cx="-580.786" cy="240.883" r="8.959"/>
	<path style="fill:#094A63;" d="M-571.828,196.09h-215.004c-19.754,0-35.834,16.071-35.834,35.834v358.34
		c0,19.763,16.08,35.834,35.834,35.834h215.004c19.754,0,35.834-16.071,35.834-35.834v-358.34
		C-535.994,212.161-552.074,196.09-571.828,196.09z M-786.832,214.007h215.004c9.886,0,17.917,8.04,17.917,17.917v304.589h-250.838
		V231.924C-804.749,222.047-796.718,214.007-786.832,214.007z M-571.828,608.181h-215.004c-9.886,0-17.917-8.04-17.917-17.917
		V554.43h250.838v35.834C-553.911,600.141-561.942,608.181-571.828,608.181z"/>
	<path style="fill:#094A63;" d="M-759.956,375.26h53.751c4.952,0,8.958-4.007,8.958-8.959v-53.751c0-4.952-4.007-8.958-8.958-8.958
		h-53.751c-4.952,0-8.958,4.007-8.958,8.958v53.751C-768.915,371.253-764.908,375.26-759.956,375.26z M-750.998,321.509h35.834
		v35.834h-35.834V321.509z"/>
	<path style="fill:#094A63;" d="M-661.413,366.302c0,4.952,4.007,8.959,8.959,8.959h53.751c4.952,0,8.958-4.007,8.958-8.959v-53.751
		c0-4.952-4.007-8.958-8.958-8.958h-53.751c-4.952,0-8.959,4.007-8.959,8.958V366.302z M-643.496,321.509h35.834v35.834h-35.834
		V321.509z"/>
	<path style="fill:#094A63;" d="M-759.956,482.762h53.751c4.952,0,8.958-4.007,8.958-8.958v-53.751c0-4.952-4.007-8.958-8.958-8.958
		h-53.751c-4.952,0-8.958,4.007-8.958,8.958v53.751C-768.915,478.755-764.908,482.762-759.956,482.762z M-750.998,429.011h35.834
		v35.834h-35.834V429.011z"/>
	<path style="fill:#094A63;" d="M-598.703,411.094h-53.751c-4.952,0-8.959,4.007-8.959,8.958v53.751
		c0,4.952,4.007,8.958,8.959,8.958h53.751c4.952,0,8.958-4.007,8.958-8.958v-53.751
		C-589.745,415.101-593.752,411.094-598.703,411.094z M-607.662,464.845h-35.834v-35.834h35.834V464.845z"/>
</g>
<g>
	<path style="fill:#094A63;" d="M-475.836,850.386c1.207,2.359,3.613,3.726,6.097,3.726c1.036,0,2.102-0.238,3.09-0.746
		c0.403-0.203,40.586-20.613,60.403-26.875c3.593-1.14,5.586-4.976,4.445-8.566c-1.133-3.594-4.941-5.594-8.567-4.457
		c-20.874,6.602-60.785,26.875-62.476,27.734C-476.203,842.909-477.543,847.019-475.836,850.386L-475.836,850.386z
		 M-475.836,850.386"/>
	<g>
		<defs>
			<rect id="SVGID_1_" x="-708.68" y="655.82" width="409.92" height="410.88"/>
		</defs>
		<clipPath id="SVGID_2_">
			<use xlink:href="#SVGID_1_"  style="overflow:visible;"/>
		</clipPath>
		<path style="clip-path:url(#SVGID_2_);fill:#094A63;" d="M-469.739,772.195c1.036,0,2.102-0.243,3.09-0.747
			c0.403-0.203,40.586-20.617,60.403-26.875c3.593-1.14,5.586-4.976,4.445-8.57c-1.133-3.59-4.941-5.59-8.567-4.457
			c-20.874,6.602-60.785,26.879-62.476,27.738c-3.359,1.707-4.699,5.817-2.992,9.18
			C-474.629,770.827-472.223,772.195-469.739,772.195L-469.739,772.195z M-469.739,772.195"/>
		<path style="clip-path:url(#SVGID_2_);fill:#094A63;" d="M-305.907,758.538c-3.773,0-6.828,3.059-6.828,6.828v266.239
			c0,11.293-9.187,20.48-20.476,20.48h-163.84v-15.707c9.953-3.48,35.879-11.598,61.437-11.598
			c59.469,0,99.848,13.168,100.25,13.305c2.055,0.68,4.348,0.34,6.145-0.945c1.781-1.281,2.832-3.344,2.832-5.535V731.234
			c0-3.204-2.219-5.973-5.344-6.664c0,0-5.351-1.196-14.5-2.875c-3.695-0.684-7.265,1.777-7.949,5.476
			c-0.68,3.715,1.77,7.27,5.477,7.953c3.488,0.641,6.41,1.207,8.664,1.656v285.754c-15.469-4.058-49.821-11.41-95.575-11.41
			c-29.742,0-58.961,9.77-68,13.082c-8.035-3.551-32.324-13.082-61.707-13.082c-47.023,0-85.757,7.758-102.398,11.696V736.515
			c13.633-3.352,53.894-12.11,102.398-12.11c24.891,0,46.239,7.75,54.614,11.25V1004.3c0,2.457,1.324,4.73,3.461,5.937
			c2.136,1.215,4.773,1.184,6.882-0.089c0.676-0.403,68.313-40.801,128.348-60.809c2.793-0.937,4.668-3.539,4.668-6.48V662.964
			c0-2.238-1.098-4.332-2.941-5.609c-1.829-1.278-4.18-1.571-6.289-0.785c-54.618,20.488-109.887,54.878-110.442,55.222
			c-3.195,2-4.168,6.211-2.168,9.406c1.992,3.196,6.203,4.172,9.406,2.172c0.504-0.324,48.586-30.238,98.782-50.422v265.024
			c-46.602,16.191-95.254,42.633-116.055,54.469V731.234c0-2.59-1.461-4.95-3.773-6.11c-1.176-0.582-29.153-14.371-64.493-14.371
			c-61.687,0-109.109,13.348-111.105,13.918c-2.926,0.832-4.949,3.516-4.949,6.563v300.371c0,2.136,1.011,4.16,2.711,5.449
			c1.203,0.91,2.648,1.379,4.117,1.379c0.629,0,1.258-0.09,1.871-0.266c0.469-0.129,47.676-13.387,107.355-13.387
			c24.957,0,46.286,7.77,54.614,11.258v16.047h-163.84c-11.293,0-20.481-9.187-20.481-20.48V765.366
			c0-3.769-3.058-6.828-6.824-6.828c-3.769,0-6.828,3.059-6.828,6.828v266.239c0,18.824,15.312,34.136,34.133,34.136h341.336
			c18.82,0,34.133-15.312,34.133-34.136V765.366C-299.078,761.597-302.133,758.538-305.907,758.538L-305.907,758.538z
			 M-305.907,758.538"/>
	</g>
	<path style="fill:#094A63;" d="M-475.836,809.425c1.207,2.363,3.613,3.727,6.097,3.727c1.036,0,2.102-0.239,3.09-0.743
		c0.403-0.207,40.586-20.617,60.403-26.879c3.593-1.14,5.586-4.976,4.445-8.566c-1.133-3.59-4.941-5.59-8.567-4.457
		c-20.874,6.602-60.785,26.875-62.476,27.734C-476.203,801.948-477.543,806.062-475.836,809.425L-475.836,809.425z
		 M-475.836,809.425"/>
	<path style="fill:#094A63;" d="M-475.836,891.343c1.207,2.363,3.613,3.73,6.097,3.73c1.036,0,2.102-0.242,3.09-0.746
		c0.403-0.203,40.586-20.617,60.403-26.875c3.593-1.14,5.586-4.976,4.445-8.566c-1.133-3.594-4.941-5.594-8.567-4.461
		c-20.874,6.602-60.785,26.879-62.476,27.738C-476.203,883.87-477.543,887.98-475.836,891.343L-475.836,891.343z M-475.836,891.343"
		/>
	<path style="fill:#094A63;" d="M-543.282,782.827c-42.156-9.89-90.058,2.711-92.074,3.25c-3.636,0.977-5.801,4.719-4.824,8.364
		c0.82,3.05,3.574,5.058,6.586,5.058c0.59,0,1.184-0.074,1.777-0.23c0.457-0.133,46.578-12.262,85.422-3.149
		c3.653,0.852,7.344-1.422,8.207-5.093C-537.328,787.362-539.61,783.691-543.282,782.827L-543.282,782.827z M-543.282,782.827"/>
	<path style="fill:#094A63;" d="M-543.282,823.788c-42.156-9.883-90.058,2.711-92.074,3.25c-3.636,0.977-5.801,4.719-4.824,8.364
		c0.82,3.05,3.574,5.058,6.586,5.058c0.59,0,1.184-0.074,1.777-0.234c0.457-0.129,46.578-12.258,85.422-3.145
		c3.653,0.852,7.344-1.422,8.207-5.094C-537.328,828.323-539.61,824.648-543.282,823.788L-543.282,823.788z M-543.282,823.788"/>
	<path style="fill:#094A63;" d="M-475.836,932.304c1.207,2.363,3.613,3.726,6.097,3.726c1.036,0,2.102-0.238,3.09-0.742
		c0.403-0.203,40.586-20.617,60.403-26.879c3.593-1.136,5.586-4.976,4.445-8.566c-1.133-3.59-4.941-5.59-8.567-4.457
		c-20.874,6.601-60.785,26.879-62.476,27.738C-476.203,924.831-477.543,928.941-475.836,932.304L-475.836,932.304z
		 M-475.836,932.304"/>
	<path style="fill:#094A63;" d="M-543.282,864.749c-42.156-9.887-90.058,2.703-92.074,3.25c-3.636,0.977-5.801,4.715-4.824,8.363
		c0.82,3.051,3.574,5.063,6.586,5.063c0.59,0,1.184-0.082,1.777-0.238c0.457-0.129,46.578-12.262,85.422-3.149
		c3.653,0.856,7.344-1.418,8.207-5.09C-537.328,869.28-539.61,865.609-543.282,864.749L-543.282,864.749z M-543.282,864.749"/>
	<path style="fill:#094A63;" d="M-543.282,946.667c-42.156-9.89-90.058,2.711-92.074,3.25c-3.636,0.977-5.801,4.719-4.824,8.363
		c0.82,3.051,3.574,5.067,6.586,5.067c0.59,0,1.184-0.082,1.777-0.238c0.457-0.133,46.578-12.262,85.422-3.149
		c3.653,0.848,7.344-1.422,8.207-5.094C-537.328,951.202-539.61,947.53-543.282,946.667L-543.282,946.667z M-543.282,946.667"/>
	<path style="fill:#094A63;" d="M-543.282,905.71c-42.156-9.894-90.058,2.703-92.074,3.25c-3.636,0.973-5.801,4.715-4.824,8.36
		c0.82,3.05,3.574,5.066,6.586,5.066c0.59,0,1.184-0.082,1.777-0.238c0.457-0.129,46.578-12.262,85.422-3.149
		c3.653,0.856,7.344-1.418,8.207-5.094C-537.328,910.241-539.61,906.57-543.282,905.71L-543.282,905.71z M-543.282,905.71"/>
</g>
<rect x="-725.864" y="62.019" style="fill:#094A63;" width="146.255" height="29.065"/>
<rect x="-725.864" y="120.197" style="fill:#094A63;" width="146.255" height="29.065"/>
<rect x="-725.864" y="178.376" style="fill:#094A63;" width="146.255" height="29.065"/>
<rect x="-725.864" y="236.554" style="fill:#094A63;" width="146.255" height="29.065"/>
<path style="fill:#094A63;" d="M-375.635,178.376h-87.242v87.242h87.242V178.376z M-404.7,236.552h-29.112v-29.112h29.112V236.552z"
	/>
<path style="fill:#094A63;" d="M-368.372,3.847l3.26-58.949h-108.287l3.26,58.949h-36.767c-11.166,0-21.365,4.216-29.088,11.142
	c-7.725-6.925-17.922-11.142-29.088-11.142h-218.922v378.124h496.021V3.847H-368.372z M-395.829-26.036l-8.09,146.236h-30.674
	l-8.089-146.236L-395.829-26.036z M-506.905,32.912h38.375l6.435,116.353h85.679l6.436-116.353h52.931v261.817h-189.856
	c-5.104,0-10.001,0.889-14.556,2.507V47.467C-521.462,39.441-514.931,32.912-506.905,32.912z M-565.082,32.912
	c8.026,0,14.556,6.529,14.556,14.555v249.769c-4.555-1.618-9.453-2.507-14.556-2.507h-189.857V32.912H-565.082z M-754.939,323.794
	h189.857c8.026,0,14.556,6.53,14.556,14.556v14.556h-204.412V323.794z M-521.462,352.906V338.35c0-8.026,6.53-14.556,14.556-14.556
	h189.857v29.112L-521.462,352.906L-521.462,352.906z"/>
<path style="fill:#094A63;" d="M417.604,299.291L278.821,160.508c-1.37-1.37-3.227-2.14-5.164-2.14H91.049
	c-4.034,0-7.304,3.27-7.304,7.304v423.652c0,4.034,3.27,7.304,7.304,7.304H412.44c4.034,0,7.304-3.27,7.304-7.304v-284.87
	C419.744,302.518,418.974,300.66,417.604,299.291z M394.807,304.455H280.962V190.609L394.807,304.455z M98.353,582.02V172.977h168
	v138.783c0,4.034,3.27,7.304,7.304,7.304h131.478V582.02H98.353z"/>
<path style="fill:#094A63;" d="M178.701,392.107c11.315,0.002,22.435-2.938,32.271-8.531l35.609,35.609
	c1.37,1.37,3.227,2.14,5.164,2.14h58.435v-14.609h-55.411l-31.847-31.847c25.44-23.031,28.775-61.799,7.64-88.835
	c-22.276-28.67-63.576-33.853-92.246-11.576s-33.853,63.576-11.576,92.246C139.204,382.745,158.385,392.122,178.701,392.107z
	 M164.304,316.091c5.551-7.932,16.482-9.863,24.414-4.312c1.492,1.044,2.812,2.314,3.912,3.764c2.45,3.078,3.793,6.891,3.813,10.825
	c0.051,9.799-7.852,17.783-17.65,17.834c-9.799,0.051-17.783-7.852-17.834-17.651C160.94,322.798,162.111,319.136,164.304,316.091z
	 M199.021,301.307c-3.787-3.12-8.24-5.327-13.016-6.45v-19.042c10.578,1.513,20.405,6.338,28.071,13.783L199.021,301.307z
	 M210.109,319.063c-0.511-2.129-1.246-4.198-2.191-6.172l15.113-11.753c3.188,5.526,5.293,11.61,6.201,17.925H210.109z
	 M137.139,296.683c8.117-11.311,20.482-18.839,34.257-20.854v19.057c-7.658,1.799-14.405,6.311-18.991,12.702l5.946,4.251
	l-5.946-4.244c-10.417,14.481-7.122,34.665,7.359,45.082c14.481,10.417,34.665,7.122,45.082-7.359
	c2.513-3.493,4.302-7.452,5.263-11.646h19.137c-1.725,11.936-7.626,22.873-16.654,30.868l-6.815-6.815l-10.328,10.328l4.675,4.675
	c-25.563,11.883-55.919,0.792-67.802-24.772C124.556,331.249,126.397,311.652,137.139,296.683L137.139,296.683z"/>
<path style="fill:#094A63;" d="M112.962,406.716h94.957v14.609h-94.957V406.716z"/>
<path style="fill:#094A63;" d="M112.962,435.933h94.957v14.609h-94.957V435.933z"/>
<path style="fill:#094A63;" d="M266.353,333.672h124.174v14.609H266.353V333.672z"/>
<path style="fill:#094A63;" d="M266.353,362.89h124.174v14.609H266.353V362.89z"/>
<path style="fill:#094A63;" d="M112.962,465.15h51.13v14.609h-51.13V465.15z"/>
<path style="fill:#094A63;" d="M251.744,516.281h-21.913c-4.034,0-7.304,3.27-7.304,7.304v36.522c0,4.034,3.27,7.304,7.304,7.304
	h21.913c4.034,0,7.304-3.27,7.304-7.304v-36.522C259.049,519.551,255.778,516.281,251.744,516.281z M244.44,552.803h-7.304V530.89
	h7.304V552.803z"/>
<path style="fill:#094A63;" d="M295.57,487.063h-21.913c-4.034,0-7.304,3.27-7.304,7.304v65.739c0,4.034,3.27,7.304,7.304,7.304
	h21.913c4.034,0,7.304-3.27,7.304-7.304v-65.739C302.875,490.334,299.604,487.063,295.57,487.063z M288.266,552.803h-7.304v-51.13
	h7.304V552.803z"/>
<path style="fill:#094A63;" d="M339.396,450.542h-21.913c-4.034,0-7.304,3.27-7.304,7.304v102.261c0,4.034,3.27,7.304,7.304,7.304
	h21.913c4.034,0,7.304-3.27,7.304-7.304V457.846C346.701,453.812,343.431,450.542,339.396,450.542z M332.092,552.803h-7.304V465.15
	h7.304V552.803z"/>
<path style="fill:#094A63;" d="M383.223,414.02h-21.913c-4.034,0-7.304,3.27-7.304,7.304v138.783c0,4.034,3.27,7.304,7.304,7.304
	h21.913c4.034,0,7.304-3.27,7.304-7.304V421.324C390.527,417.29,387.257,414.02,383.223,414.02z M375.918,552.803h-7.304V428.629
	h7.304V552.803z"/>
<path style="fill:#094A63;" d="M112.962,187.585h87.652v14.609h-87.652V187.585z"/>
<path style="fill:#094A63;" d="M112.962,209.498h87.652v14.609h-87.652V209.498z"/>
<path style="fill:#094A63;" d="M112.962,231.411h51.13v14.609h-51.13V231.411z"/>
<path style="fill:#094A63;" d="M173.084,489.693l-18.487,22.205c-3.87-1.886-8.112-2.884-12.417-2.922
	c-16.245-0.109-29.503,12.971-29.612,29.216c-0.109,16.245,12.971,29.503,29.216,29.612c16.245,0.109,29.503-12.971,29.612-29.216
	c0.042-6.236-1.899-12.324-5.543-17.385l16.274-19.532h33.096v-14.609h-36.522C176.531,487.062,174.473,488.026,173.084,489.693z
	 M156.788,538.194c0,8.068-6.541,14.609-14.609,14.609c-8.068,0-14.609-6.541-14.609-14.609s6.541-14.609,14.609-14.609
	c0.824,0.012,1.645,0.095,2.454,0.248l-8.035,9.686l11.234,9.35l8.035-9.671C156.464,534.797,156.775,536.488,156.788,538.194z"/>
</svg>
