<?xml version="1.0" encoding="iso-8859-1"?>
<!-- Generator: Adobe Illustrator 22.1.0, SVG Export Plug-In . SVG Version: 6.00 Build 0)  -->
<svg version="1.1" xmlns="http://www.w3.org/2000/svg" xmlns:xlink="http://www.w3.org/1999/xlink" x="0px" y="0px"
	 viewBox="0 0 600 467" style="enable-background:new 0 0 600 467;" xml:space="preserve">
<g id="Capa_1">
	<g>
		<path style="fill:#094A63;" d="M307.833,149.426c1.952,0.001,3.825-0.775,5.206-2.155c1.381-1.381,2.156-3.253,2.155-5.206V83.176
			c0-4.065-3.296-7.361-7.361-7.361s-7.361,3.296-7.361,7.361v58.889c0,1.952,0.775,3.825,2.155,5.206
			C304.008,148.651,305.88,149.426,307.833,149.426z"/>
		<path style="fill:#094A63;" d="M513.944,90.537h-14.722V61.093c-0.009-8.127-6.595-14.713-14.722-14.722H379.433
			c-16.532-23.1-43.194-36.806-71.6-36.806s-55.068,13.705-71.6,36.806H131.166c-8.127,0.009-14.713,6.595-14.722,14.722v29.444
			h-14.722c-8.127,0.009-14.713,6.595-14.722,14.722v301.806c0.009,8.127,6.595,14.713,14.722,14.722h159.738
			c8.447,17.971,26.516,29.444,46.374,29.444c19.857,0,37.927-11.473,46.374-29.444h159.738c8.127-0.009,14.713-6.595,14.722-14.722
			V105.259C528.657,97.132,522.071,90.546,513.944,90.537z M131.166,355.537h132.5c4.065,0,7.361-3.296,7.361-7.361
			s-3.296-7.361-7.361-7.361h-132.5v-22.083h132.5c20.317,0.024,36.782,16.488,36.806,36.806v22.083H131.166V355.537z
			 M315.194,355.537c0.024-20.317,16.488-36.782,36.806-36.806h132.5v22.083h-132.5c-4.065,0-7.361,3.296-7.361,7.361
			s3.296,7.361,7.361,7.361h132.5v22.083H315.194V355.537z M484.499,61.093v242.917h-132.5
			c-13.863-0.002-27.137,5.602-36.806,15.536V185.859c28.696-2.323,54.445-18.523,68.96-43.386
			c14.514-24.863,15.962-55.25,3.876-81.38H484.499z M307.833,24.287c40.654,0,73.611,32.957,73.611,73.611
			s-32.957,73.611-73.611,73.611s-73.611-32.957-73.611-73.611C234.268,57.263,267.198,24.334,307.833,24.287z M131.166,61.093
			h96.47c-12.086,26.13-10.638,56.517,3.876,81.38c14.514,24.863,40.264,41.063,68.96,43.386v133.687
			c-9.669-9.934-22.943-15.537-36.806-15.536h-132.5V61.093z M513.944,407.065H349.426c-0.081,0-0.147,0.043-0.228,0.046
			c-0.521,0.046-1.036,0.15-1.535,0.31c-0.87,0.077-1.688,0.445-2.323,1.045c-0.826,0.401-1.493,1.07-1.891,1.899
			c-0.341,0.445-0.629,0.93-0.856,1.443c-0.029,0.075-0.092,0.124-0.119,0.2c-5.187,14.684-19.069,24.502-34.642,24.502
			s-29.455-9.818-34.642-24.502c-0.027-0.076-0.09-0.125-0.119-0.2c-0.223-0.5-0.503-0.974-0.834-1.41
			c-0.379-0.81-1.021-1.469-1.821-1.869c-0.359-0.296-0.746-0.556-1.155-0.778c-0.385-0.137-0.78-0.241-1.182-0.313
			c-0.525-0.171-1.067-0.281-1.617-0.327c-0.079-0.003-0.144-0.045-0.223-0.045H101.722V105.259h14.722V377.62
			c0.009,8.127,6.595,14.713,14.722,14.722h353.333c8.127-0.009,14.713-6.595,14.722-14.722V105.259h14.722V407.065z"/>
		<path style="fill:#094A63;" d="M381.444,186.232c-0.001,1.952,0.775,3.825,2.155,5.206c1.381,1.381,3.253,2.156,5.206,2.155
			h73.611c4.065,0,7.361-3.296,7.361-7.361c0-4.065-3.296-7.361-7.361-7.361h-73.611c-1.952-0.001-3.825,0.775-5.206,2.155
			C382.219,182.406,381.443,184.279,381.444,186.232z"/>
		<path style="fill:#094A63;" d="M462.416,215.676H359.36c-4.065,0-7.361,3.296-7.361,7.361c0,4.065,3.296,7.361,7.361,7.361
			h103.056c4.065,0,7.361-3.296,7.361-7.361C469.777,218.972,466.481,215.676,462.416,215.676z"/>
		<path style="fill:#094A63;" d="M462.416,252.482H359.36c-4.065,0-7.361,3.296-7.361,7.361c0,4.065,3.296,7.361,7.361,7.361
			h103.056c4.065,0,7.361-3.296,7.361-7.361C469.777,255.777,466.481,252.482,462.416,252.482z"/>
		<path style="fill:#094A63;" d="M153.249,193.593h73.611c4.065,0,7.361-3.296,7.361-7.361c0-4.065-3.296-7.361-7.361-7.361h-73.611
			c-4.065,0-7.361,3.296-7.361,7.361C145.888,190.297,149.184,193.593,153.249,193.593z"/>
		<path style="fill:#094A63;" d="M153.249,230.398h103.056c4.065,0,7.361-3.296,7.361-7.361c0-4.065-3.296-7.361-7.361-7.361
			H153.249c-4.065,0-7.361,3.296-7.361,7.361C145.888,227.103,149.184,230.398,153.249,230.398z"/>
		<path style="fill:#094A63;" d="M153.249,267.204h103.056c4.065,0,7.361-3.296,7.361-7.361c0-4.065-3.296-7.361-7.361-7.361
			H153.249c-4.065,0-7.361,3.296-7.361,7.361C145.888,263.908,149.184,267.204,153.249,267.204z"/>
		<path style="fill:#094A63;" d="M307.833,61.093c1.952,0.001,3.825-0.775,5.206-2.155c1.381-1.381,2.156-3.253,2.155-5.206V46.37
			c0-4.065-3.296-7.361-7.361-7.361s-7.361,3.296-7.361,7.361v7.361c0,1.952,0.775,3.825,2.155,5.206
			C304.008,60.318,305.88,61.093,307.833,61.093z"/>
	</g>
</g>
<g id="Layer_2">
</g>
</svg>
