<?xml version="1.0" encoding="iso-8859-1"?>
<!-- Generator: Adobe Illustrator 22.1.0, SVG Export Plug-In . SVG Version: 6.00 Build 0)  -->
<svg version="1.1" xmlns="http://www.w3.org/2000/svg" xmlns:xlink="http://www.w3.org/1999/xlink" x="0px" y="0px"
	 viewBox="0 0 132.616 157.32" style="enable-background:new 0 0 132.616 157.32;" xml:space="preserve">
<g id="Layer_1">
	<path style="fill:none;stroke:#000000;stroke-width:1.3122;stroke-linecap:round;stroke-linejoin:round;" d="M67.327,98.942"/>
	<path style="fill:#007F5A;" d="M48.385,55.947l18.09,18.09l18.09-18.09C74.573,45.956,58.376,45.956,48.385,55.947z"/>
	<path style="fill:#00A777;" d="M48.385,92.126l18.09-18.09l-18.09-18.09C38.394,65.938,38.394,82.136,48.385,92.126z"/>
	<path style="fill:#009072;" d="M84.564,92.126l-18.09-18.09l-18.09,18.09C58.376,102.117,74.573,102.117,84.564,92.126z"/>
	
		<radialGradient id="SVGID_1_" cx="46.1307" cy="111.1201" r="40.0356" gradientTransform="matrix(0.4434 -0.8328 1.6657 0.8868 -158.3699 49.0438)" gradientUnits="userSpaceOnUse">
		<stop  offset="0" style="stop-color:#214497"/>
		<stop  offset="1" style="stop-color:#FFFFFF"/>
	</radialGradient>
	<circle style="opacity:0.3;fill:url(#SVGID_1_);" cx="66.014" cy="74.037" r="18.425"/>
	<path style="fill:#00A777;" d="M84.564,55.947l-18.09,18.09l18.09,18.09C94.555,82.136,94.555,65.938,84.564,55.947z"/>
</g>
<g id="Layer_3">
	
		<radialGradient id="SVGID_2_" cx="73.7921" cy="69.3753" r="43.8432" gradientTransform="matrix(0.7526 0.6585 -0.6585 0.7526 25.1323 -40.5443)" gradientUnits="userSpaceOnUse">
		<stop  offset="0.0413" style="stop-color:#0466A4"/>
		<stop  offset="0.1973" style="stop-color:#277BB1"/>
		<stop  offset="0.5446" style="stop-color:#81B2D1"/>
		<stop  offset="1" style="stop-color:#FFFFFF"/>
	</radialGradient>
	<circle style="fill:url(#SVGID_2_);" cx="66.475" cy="74.037" r="25.448"/>
	<rect x="-182.151" y="182.667" style="fill:#09B4CB;" width="22.748" height="9.382"/>
	<rect x="-158.429" y="182.667" style="fill:#E4A125;" width="22.748" height="9.382"/>
	<rect x="-134.76" y="182.667" style="fill:#94C949;" width="22.748" height="9.382"/>
	<rect x="-110.635" y="182.667" style="fill:#BA1F8B;" width="22.748" height="9.382"/>
	<rect x="-89.912" y="182.667" style="fill:#00A677;" width="22.748" height="9.382"/>
	<rect x="-67.164" y="182.667" style="fill:#B31E4A;" width="22.748" height="9.382"/>
	<rect x="-44.415" y="199.568" style="fill:#722D8D;" width="22.748" height="9.382"/>
	<rect x="-205.873" y="184.225" style="fill:#0466A4;" width="22.748" height="9.382"/>
</g>
<g id="Layer_2">
	<g>
		<path style="fill:#FFFFFF;" d="M86.801,79.481l-7.029-3.047c-0.035-0.662-0.164-1.332-0.41-1.92
			c-0.858-2.059-3.087-3.773-3.86-4.719c-0.771-0.945-1.072-2.574-1.545-2.617c-0.514-0.045-1.329,0.902-0.988,1.887
			c0.345,0.988,0.731,1.891,1.416,2.662c0.688,0.773,0.988,1.031,0.73,1.59c-0.031,0.068-0.073,0.154-0.12,0.252
			c-0.144-0.064-0.287-0.135-0.438-0.186l-7.823-5.369c-0.494-0.258-1.102-0.064-1.356,0.43c-0.259,0.492-0.063,1.1,0.43,1.357
			l5.005,3.904c-0.341,0.186-0.649,0.414-0.931,0.676l-6.722-3.078c-0.508-0.23-1.104-0.006-1.337,0.498
			c-0.231,0.504-0.009,1.104,0.497,1.334l6.396,2.93c-0.112,0.271-0.196,0.555-0.254,0.852l-6.284-1.174
			c-0.52-0.188-1.099,0.078-1.292,0.6c-0.192,0.521,0.071,1.096,0.594,1.289l7.073,1.467c0.06,0.205,0.253,0.672,0.341,0.865
			l-4.66,0.51c-0.549-0.084-1.062,0.293-1.148,0.84c-0.088,0.551,0.291,1.062,0.839,1.148l6.533-0.314
			c0.572,0.24,1.996,0.723,2.653,0.723c1.059,0,1.59-0.324,2.371-0.914l8.81,3.291c0.407,0.178,0.834,0.264,1.253,0.264
			c1.216,0,2.372-0.709,2.886-1.895C89.122,82.024,88.392,80.17,86.801,79.481z"/>
		<path style="fill:#FFFFFF;" d="M54.054,71.024l-0.6,0.357c-0.15,0.059-0.286,0.139-0.428,0.215
			c-0.052-0.1-0.099-0.184-0.133-0.248c-0.289-0.543-0.007-0.816,0.636-1.631c0.64-0.809,0.975-1.73,1.26-2.736
			c0.283-1.002-0.584-1.9-1.098-1.826c-0.468,0.07-0.674,1.713-1.389,2.701c-0.717,0.986-2.843,2.826-3.582,4.934
			c-0.205,0.588-0.295,1.248-0.297,1.898l-3.831,1.99c-1.549,0.785-2.171,2.676-1.388,4.227c0.582,1.154,1.776,1.793,2.987,1.721
			c0.423-0.021,0.841-0.131,1.237-0.332l5.595-2.299c0.815,0.541,1.364,0.832,2.42,0.773c0.656-0.039,2.052-0.598,2.609-0.875
			l1.844-0.504l-7.756-2.555L54.054,71.024z"/>
		<path style="fill:#FFFFFF;" d="M53.655,76.22l6.211-18.88l13.248,4.358l-2.5,7.602l-3.305-2.265
			c-0.352-0.188-0.692-0.274-1.042-0.274c-0.805,0-1.533,0.444-1.9,1.158c-0.533,1.02-0.166,2.271,0.836,2.849l0.681,0.533
			l-2.252-1.033c-0.286-0.129-0.586-0.193-0.892-0.193c-0.834,0-1.601,0.492-1.952,1.253c-0.491,1.077-0.018,2.352,1.056,2.844
			l1.332,0.608l-0.685-0.127c-0.153-0.064-0.405-0.109-0.658-0.109c-0.893,0-1.701,0.563-2.013,1.402
			c-0.201,0.539-0.18,1.122,0.062,1.64c0.202,0.442,0.532,0.78,0.984,1.008L53.655,76.22z"/>
	</g>
	<g>
	</g>
	<g>
	</g>
	<g>
	</g>
	<g>
	</g>
	<g>
	</g>
	<g>
	</g>
</g>
</svg>
