<?xml version="1.0" encoding="iso-8859-1"?>
<!-- Generator: Adobe Illustrator 22.1.0, SVG Export Plug-In . SVG Version: 6.00 Build 0)  -->
<svg version="1.1" id="Capa_1" xmlns="http://www.w3.org/2000/svg" xmlns:xlink="http://www.w3.org/1999/xlink" x="0px" y="0px"
	 viewBox="-49 141 600 467" style="enable-background:new -49 141 600 467;" xml:space="preserve">
<g>
	<polygon style="fill:#094A63;" points="987.485,351.689 969.551,333.754 951.638,351.667 987.485,387.513 1040.235,334.764 
		1022.322,316.852 	"/>
	<rect x="1065.082" y="309.687" style="fill:#094A63;" width="126.817" height="25.333"/>
	<rect x="1065.082" y="360.395" style="fill:#094A63;" width="126.817" height="25.333"/>
	<polygon style="fill:#094A63;" points="987.485,453.101 969.551,435.166 951.638,453.079 987.485,488.927 1040.235,436.177 
		1022.322,418.264 	"/>
	<rect x="1065.082" y="411.094" style="fill:#094A63;" width="126.817" height="25.333"/>
	<rect x="1065.082" y="461.802" style="fill:#094A63;" width="126.817" height="25.333"/>
	<polygon style="fill:#094A63;" points="987.485,554.514 969.551,536.579 951.638,554.492 987.485,590.34 1040.235,537.59 
		1022.322,519.677 	"/>
	<rect x="1065.082" y="512.51" style="fill:#094A63;" width="126.817" height="25.333"/>
	<rect x="1065.082" y="563.218" style="fill:#094A63;" width="126.817" height="25.333"/>
	<path style="fill:#094A63;" d="M1166.537,232.953v-26.025H977.507v26.025h-76.06v406.303h341.15V232.953H1166.537z
		 M1002.839,232.261h138.365v26.719h-138.365V232.261z M1217.264,613.924H926.78V258.286h50.727v26.025h189.031v-26.025h50.727
		V613.924z"/>
</g>
<g>
	<path style="fill:#094A63;" d="M-688.288,249.841h17.917c4.952,0,8.958-4.007,8.958-8.958c0-4.952-4.007-8.959-8.958-8.959h-17.917
		c-4.952,0-8.958,4.007-8.958,8.959C-697.247,245.834-693.24,249.841-688.288,249.841z"/>
	<path style="fill:#094A63;" d="M-652.454,572.347h-53.751c-4.952,0-8.958,4.007-8.958,8.958s4.007,8.958,8.958,8.958h53.751
		c4.952,0,8.958-4.007,8.958-8.958S-647.503,572.347-652.454,572.347z"/>
	<circle style="fill:#094A63;" cx="-580.786" cy="240.883" r="8.959"/>
	<path style="fill:#094A63;" d="M-571.828,196.09h-215.004c-19.754,0-35.834,16.071-35.834,35.834v358.34
		c0,19.763,16.08,35.834,35.834,35.834h215.004c19.754,0,35.834-16.071,35.834-35.834v-358.34
		C-535.994,212.161-552.074,196.09-571.828,196.09z M-786.832,214.007h215.004c9.886,0,17.917,8.04,17.917,17.917v304.589h-250.838
		V231.924C-804.749,222.047-796.718,214.007-786.832,214.007z M-571.828,608.181h-215.004c-9.886,0-17.917-8.04-17.917-17.917
		V554.43h250.838v35.834C-553.911,600.141-561.942,608.181-571.828,608.181z"/>
	<path style="fill:#094A63;" d="M-759.956,375.26h53.751c4.952,0,8.958-4.007,8.958-8.959v-53.751c0-4.952-4.007-8.958-8.958-8.958
		h-53.751c-4.952,0-8.958,4.007-8.958,8.958v53.751C-768.915,371.253-764.908,375.26-759.956,375.26z M-750.998,321.509h35.834
		v35.834h-35.834V321.509z"/>
	<path style="fill:#094A63;" d="M-661.413,366.302c0,4.952,4.007,8.959,8.959,8.959h53.751c4.952,0,8.958-4.007,8.958-8.959v-53.751
		c0-4.952-4.007-8.958-8.958-8.958h-53.751c-4.952,0-8.959,4.007-8.959,8.958V366.302z M-643.496,321.509h35.834v35.834h-35.834
		V321.509z"/>
	<path style="fill:#094A63;" d="M-759.956,482.762h53.751c4.952,0,8.958-4.007,8.958-8.958v-53.751c0-4.952-4.007-8.958-8.958-8.958
		h-53.751c-4.952,0-8.958,4.007-8.958,8.958v53.751C-768.915,478.755-764.908,482.762-759.956,482.762z M-750.998,429.011h35.834
		v35.834h-35.834V429.011z"/>
	<path style="fill:#094A63;" d="M-598.703,411.094h-53.751c-4.952,0-8.959,4.007-8.959,8.958v53.751
		c0,4.952,4.007,8.958,8.959,8.958h53.751c4.952,0,8.958-4.007,8.958-8.958v-53.751
		C-589.745,415.101-593.752,411.094-598.703,411.094z M-607.662,464.845h-35.834v-35.834h35.834V464.845z"/>
</g>
<g>
	<path style="fill:#094A63;" d="M285.164,364.386c1.207,2.359,3.613,3.726,6.097,3.726c1.036,0,2.102-0.238,3.09-0.746
		c0.403-0.203,40.586-20.613,60.403-26.875c3.593-1.14,5.586-4.976,4.445-8.566c-1.133-3.594-4.941-5.594-8.567-4.457
		c-20.874,6.602-60.785,26.875-62.476,27.734C284.797,356.909,283.457,361.019,285.164,364.386L285.164,364.386z M285.164,364.386"
		/>
	<g>
		<defs>
			<rect id="SVGID_1_" x="52.32" y="169.82" width="409.92" height="410.88"/>
		</defs>
		<clipPath id="SVGID_2_">
			<use xlink:href="#SVGID_1_"  style="overflow:visible;"/>
		</clipPath>
		<path style="clip-path:url(#SVGID_2_);fill:#094A63;" d="M291.261,286.195c1.036,0,2.102-0.243,3.09-0.747
			c0.403-0.203,40.586-20.617,60.403-26.875c3.593-1.14,5.586-4.976,4.445-8.57c-1.133-3.59-4.941-5.59-8.567-4.457
			c-20.874,6.602-60.785,26.879-62.476,27.738c-3.359,1.707-4.699,5.817-2.992,9.18
			C286.371,284.827,288.777,286.195,291.261,286.195L291.261,286.195z M291.261,286.195"/>
		<path style="clip-path:url(#SVGID_2_);fill:#094A63;" d="M455.093,272.538c-3.773,0-6.828,3.059-6.828,6.828v266.239
			c0,11.293-9.187,20.48-20.476,20.48h-163.84v-15.707c9.953-3.48,35.879-11.598,61.437-11.598
			c59.469,0,99.848,13.168,100.25,13.305c2.055,0.68,4.348,0.34,6.145-0.945c1.781-1.281,2.832-3.344,2.832-5.535V245.234
			c0-3.204-2.219-5.973-5.344-6.664c0,0-5.351-1.196-14.5-2.875c-3.695-0.684-7.265,1.777-7.949,5.476
			c-0.68,3.715,1.77,7.27,5.477,7.953c3.488,0.641,6.41,1.207,8.664,1.656v285.754c-15.469-4.058-49.821-11.41-95.575-11.41
			c-29.742,0-58.961,9.77-68,13.082c-8.035-3.551-32.324-13.082-61.707-13.082c-47.023,0-85.757,7.758-102.398,11.696V250.515
			c13.633-3.352,53.894-12.11,102.398-12.11c24.891,0,46.239,7.75,54.614,11.25V518.3c0,2.457,1.324,4.73,3.461,5.937
			c2.136,1.215,4.773,1.184,6.882-0.089c0.676-0.403,68.313-40.801,128.348-60.809c2.793-0.937,4.668-3.539,4.668-6.48V176.964
			c0-2.238-1.098-4.332-2.941-5.609c-1.829-1.278-4.18-1.571-6.289-0.785c-54.618,20.488-109.887,54.878-110.442,55.222
			c-3.195,2-4.168,6.211-2.168,9.406c1.992,3.196,6.203,4.172,9.406,2.172c0.504-0.324,48.586-30.238,98.782-50.422v265.024
			c-46.602,16.191-95.254,42.633-116.055,54.469V245.234c0-2.59-1.461-4.95-3.773-6.11c-1.176-0.582-29.153-14.371-64.493-14.371
			c-61.687,0-109.109,13.348-111.105,13.918c-2.926,0.832-4.949,3.516-4.949,6.563v300.371c0,2.136,1.011,4.16,2.711,5.449
			c1.203,0.91,2.648,1.379,4.117,1.379c0.629,0,1.258-0.09,1.871-0.266c0.469-0.129,47.676-13.387,107.355-13.387
			c24.957,0,46.286,7.77,54.614,11.258v16.047H86.453c-11.293,0-20.481-9.187-20.481-20.48V279.366c0-3.769-3.058-6.828-6.824-6.828
			c-3.769,0-6.828,3.059-6.828,6.828v266.239c0,18.824,15.312,34.136,34.133,34.136h341.336c18.82,0,34.133-15.312,34.133-34.136
			V279.366C461.922,275.597,458.867,272.538,455.093,272.538L455.093,272.538z M455.093,272.538"/>
	</g>
	<path style="fill:#094A63;" d="M285.164,323.425c1.207,2.363,3.613,3.727,6.097,3.727c1.036,0,2.102-0.239,3.09-0.743
		c0.403-0.207,40.586-20.617,60.403-26.879c3.593-1.14,5.586-4.976,4.445-8.566c-1.133-3.59-4.941-5.59-8.567-4.457
		c-20.874,6.602-60.785,26.875-62.476,27.734C284.797,315.948,283.457,320.062,285.164,323.425L285.164,323.425z M285.164,323.425"
		/>
	<path style="fill:#094A63;" d="M285.164,405.343c1.207,2.363,3.613,3.73,6.097,3.73c1.036,0,2.102-0.242,3.09-0.746
		c0.403-0.203,40.586-20.617,60.403-26.875c3.593-1.14,5.586-4.976,4.445-8.566c-1.133-3.594-4.941-5.594-8.567-4.461
		c-20.874,6.602-60.785,26.879-62.476,27.738C284.797,397.87,283.457,401.98,285.164,405.343L285.164,405.343z M285.164,405.343"/>
	<path style="fill:#094A63;" d="M217.718,296.827c-42.156-9.89-90.058,2.711-92.074,3.25c-3.636,0.977-5.801,4.719-4.824,8.364
		c0.82,3.05,3.574,5.058,6.586,5.058c0.59,0,1.184-0.074,1.777-0.23c0.457-0.133,46.578-12.262,85.422-3.149
		c3.653,0.852,7.344-1.422,8.207-5.093C223.672,301.362,221.39,297.691,217.718,296.827L217.718,296.827z M217.718,296.827"/>
	<path style="fill:#094A63;" d="M217.718,337.788c-42.156-9.883-90.058,2.711-92.074,3.25c-3.636,0.977-5.801,4.719-4.824,8.364
		c0.82,3.05,3.574,5.058,6.586,5.058c0.59,0,1.184-0.074,1.777-0.234c0.457-0.129,46.578-12.258,85.422-3.145
		c3.653,0.852,7.344-1.422,8.207-5.094C223.672,342.323,221.39,338.648,217.718,337.788L217.718,337.788z M217.718,337.788"/>
	<path style="fill:#094A63;" d="M285.164,446.304c1.207,2.363,3.613,3.726,6.097,3.726c1.036,0,2.102-0.238,3.09-0.742
		c0.403-0.203,40.586-20.617,60.403-26.879c3.593-1.136,5.586-4.976,4.445-8.566c-1.133-3.59-4.941-5.59-8.567-4.457
		c-20.874,6.601-60.785,26.879-62.476,27.738C284.797,438.831,283.457,442.941,285.164,446.304L285.164,446.304z M285.164,446.304"
		/>
	<path style="fill:#094A63;" d="M217.718,378.749c-42.156-9.887-90.058,2.703-92.074,3.25c-3.636,0.977-5.801,4.715-4.824,8.363
		c0.82,3.051,3.574,5.063,6.586,5.063c0.59,0,1.184-0.082,1.777-0.238c0.457-0.129,46.578-12.262,85.422-3.149
		c3.653,0.856,7.344-1.418,8.207-5.09C223.672,383.28,221.39,379.609,217.718,378.749L217.718,378.749z M217.718,378.749"/>
	<path style="fill:#094A63;" d="M217.718,460.667c-42.156-9.89-90.058,2.711-92.074,3.25c-3.636,0.977-5.801,4.719-4.824,8.363
		c0.82,3.051,3.574,5.067,6.586,5.067c0.59,0,1.184-0.082,1.777-0.238c0.457-0.133,46.578-12.262,85.422-3.149
		c3.653,0.848,7.344-1.422,8.207-5.094C223.672,465.202,221.39,461.53,217.718,460.667L217.718,460.667z M217.718,460.667"/>
	<path style="fill:#094A63;" d="M217.718,419.71c-42.156-9.894-90.058,2.703-92.074,3.25c-3.636,0.973-5.801,4.715-4.824,8.36
		c0.82,3.05,3.574,5.066,6.586,5.066c0.59,0,1.184-0.082,1.777-0.238c0.457-0.129,46.578-12.262,85.422-3.149
		c3.653,0.856,7.344-1.418,8.207-5.094C223.672,424.241,221.39,420.57,217.718,419.71L217.718,419.71z M217.718,419.71"/>
</g>
</svg>
