<?xml version="1.0" encoding="iso-8859-1"?>
<!-- Generator: Adobe Illustrator 22.1.0, SVG Export Plug-In . SVG Version: 6.00 Build 0)  -->
<svg version="1.1" id="Capa_1" xmlns="http://www.w3.org/2000/svg" xmlns:xlink="http://www.w3.org/1999/xlink" x="0px" y="0px"
	 viewBox="-49 141 600 467" style="enable-background:new -49 141 600 467;" xml:space="preserve">
<g>
	<polygon style="fill:#094A63;" points="987.485,351.689 969.551,333.754 951.638,351.667 987.485,387.513 1040.235,334.764 
		1022.322,316.852 	"/>
	<rect x="1065.082" y="309.687" style="fill:#094A63;" width="126.817" height="25.333"/>
	<rect x="1065.082" y="360.395" style="fill:#094A63;" width="126.817" height="25.333"/>
	<polygon style="fill:#094A63;" points="987.485,453.101 969.551,435.166 951.638,453.079 987.485,488.927 1040.235,436.177 
		1022.322,418.264 	"/>
	<rect x="1065.082" y="411.094" style="fill:#094A63;" width="126.817" height="25.333"/>
	<rect x="1065.082" y="461.802" style="fill:#094A63;" width="126.817" height="25.333"/>
	<polygon style="fill:#094A63;" points="987.485,554.514 969.551,536.579 951.638,554.492 987.485,590.34 1040.235,537.59 
		1022.322,519.677 	"/>
	<rect x="1065.082" y="512.51" style="fill:#094A63;" width="126.817" height="25.333"/>
	<rect x="1065.082" y="563.218" style="fill:#094A63;" width="126.817" height="25.333"/>
	<path style="fill:#094A63;" d="M1166.537,232.953v-26.025H977.507v26.025h-76.06v406.303h341.15V232.953H1166.537z
		 M1002.839,232.261h138.365v26.719h-138.365V232.261z M1217.264,613.924H926.78V258.286h50.727v26.025h189.031v-26.025h50.727
		V613.924z"/>
</g>
<g>
	<path style="fill:#094A63;" d="M315.879,371.788l-97.699-62.194c-2.731-1.732-6.206-1.865-9.071-0.3
		c-2.82,1.554-4.596,4.552-4.596,7.805v124.334c0,3.253,1.776,6.25,4.596,7.805c1.343,0.699,2.82,1.088,4.297,1.088
		c1.643,0,3.342-0.477,4.774-1.387l97.699-62.195c2.565-1.599,4.13-4.463,4.13-7.505
		C320.01,376.206,318.444,373.387,315.879,371.788L315.879,371.788z M222.299,425.256v-91.982l72.253,45.963L222.299,425.256z
		 M222.299,425.256"/>
	<path style="fill:#094A63;" d="M497.645,174.979H0.255c-4.907,0-8.893,3.986-8.893,8.893v390.786c0,4.896,3.985,8.893,8.893,8.893
		h497.39c4.896,0,8.837-3.997,8.837-8.893V183.872C506.482,178.965,502.541,174.979,497.645,174.979L497.645,174.979z M80.18,370.4
		H9.148v-79.98H80.18V370.4z M9.148,388.13H80.18v79.925H9.148V388.13z M97.966,476.948V192.765h301.969v373.001H97.966V476.948z
		 M488.752,370.4h-71.087v-79.98h71.087V370.4z M417.665,388.13h71.087v79.925h-71.087V388.13z M488.752,192.765v79.925h-71.087
		v-79.925H488.752z M9.148,192.765H80.18v79.925H9.148V192.765z M9.148,565.765v-79.925H80.18v79.925H9.148z M488.752,565.765
		h-71.087v-79.925h71.087V565.765z M488.752,565.765"/>
</g>
<path style="fill:#094A63;" d="M216.5,322c0,0-1.5,114.5,0,112.5s92.5-56.237,92.5-56.237L216.5,322z"/>
</svg>
